<mxfile host="app.diagrams.net" agent="Mozilla/5.0 (Windows NT 10.0; Win64; x64) AppleWebKit/537.36 (KHTML, like Gecko) Chrome/134.0.0.0 Safari/537.36" version="26.1.1">
  <diagram id="C5RBs43oDa-KdzZeNtuy" name="Page-1">
    <mxGraphModel dx="1434" dy="746" grid="1" gridSize="10" guides="1" tooltips="1" connect="1" arrows="1" fold="1" page="1" pageScale="1" pageWidth="827" pageHeight="1169" background="none" math="0" shadow="1">
      <root>
        <mxCell id="WIyWlLk6GJQsqaUBKTNV-0" />
        <mxCell id="WIyWlLk6GJQsqaUBKTNV-1" parent="WIyWlLk6GJQsqaUBKTNV-0" />
        <mxCell id="WIyWlLk6GJQsqaUBKTNV-2" value="" style="rounded=0;html=1;jettySize=auto;orthogonalLoop=1;fontSize=11;endArrow=block;endFill=0;endSize=8;strokeWidth=1;shadow=0;labelBackgroundColor=none;edgeStyle=orthogonalEdgeStyle;exitX=0.5;exitY=1;exitDx=0;exitDy=0;" parent="WIyWlLk6GJQsqaUBKTNV-1" source="4AQw_EIP_2b5Q0-50YWU-6" target="WIyWlLk6GJQsqaUBKTNV-6" edge="1">
          <mxGeometry relative="1" as="geometry">
            <mxPoint x="153.94" y="280" as="sourcePoint" />
            <Array as="points" />
          </mxGeometry>
        </mxCell>
        <mxCell id="WIyWlLk6GJQsqaUBKTNV-3" value="用户打开&lt;div&gt;考研&lt;span style=&quot;background-color: transparent; color: light-dark(rgb(0, 0, 0), rgb(255, 255, 255));&quot;&gt;备考小程序&lt;/span&gt;&lt;/div&gt;" style="rounded=1;whiteSpace=wrap;html=1;fontSize=12;glass=0;strokeWidth=1;shadow=0;" parent="WIyWlLk6GJQsqaUBKTNV-1" vertex="1">
          <mxGeometry x="264" y="100" width="120" height="40" as="geometry" />
        </mxCell>
        <mxCell id="WIyWlLk6GJQsqaUBKTNV-4" value="Yes" style="rounded=0;html=1;jettySize=auto;orthogonalLoop=1;fontSize=11;endArrow=block;endFill=0;endSize=8;strokeWidth=1;shadow=0;labelBackgroundColor=none;edgeStyle=orthogonalEdgeStyle;" parent="WIyWlLk6GJQsqaUBKTNV-1" source="4AQw_EIP_2b5Q0-50YWU-15" edge="1">
          <mxGeometry y="20" relative="1" as="geometry">
            <mxPoint as="offset" />
            <mxPoint x="153.94" y="490" as="targetPoint" />
          </mxGeometry>
        </mxCell>
        <mxCell id="WIyWlLk6GJQsqaUBKTNV-5" value="No" style="edgeStyle=orthogonalEdgeStyle;rounded=0;html=1;jettySize=auto;orthogonalLoop=1;fontSize=11;endArrow=block;endFill=0;endSize=8;strokeWidth=1;shadow=0;labelBackgroundColor=none;entryX=0.5;entryY=0;entryDx=0;entryDy=0;" parent="WIyWlLk6GJQsqaUBKTNV-1" source="WIyWlLk6GJQsqaUBKTNV-6" target="WIyWlLk6GJQsqaUBKTNV-7" edge="1">
          <mxGeometry y="10" relative="1" as="geometry">
            <mxPoint as="offset" />
            <mxPoint x="313.94" y="450" as="targetPoint" />
          </mxGeometry>
        </mxCell>
        <mxCell id="WIyWlLk6GJQsqaUBKTNV-6" value="检查token" style="rhombus;whiteSpace=wrap;html=1;shadow=0;fontFamily=Helvetica;fontSize=12;align=center;strokeWidth=1;spacing=6;spacingTop=-4;" parent="WIyWlLk6GJQsqaUBKTNV-1" vertex="1">
          <mxGeometry x="103.94" y="320" width="100" height="80" as="geometry" />
        </mxCell>
        <mxCell id="WIyWlLk6GJQsqaUBKTNV-7" value="登录界面" style="rounded=1;whiteSpace=wrap;html=1;fontSize=12;glass=0;strokeWidth=1;shadow=0;" parent="WIyWlLk6GJQsqaUBKTNV-1" vertex="1">
          <mxGeometry x="274" y="440" width="120" height="40" as="geometry" />
        </mxCell>
        <mxCell id="WIyWlLk6GJQsqaUBKTNV-8" value="Yes" style="rounded=0;html=1;jettySize=auto;orthogonalLoop=1;fontSize=11;endArrow=block;endFill=0;endSize=8;strokeWidth=1;shadow=0;labelBackgroundColor=none;edgeStyle=orthogonalEdgeStyle;" parent="WIyWlLk6GJQsqaUBKTNV-1" source="WIyWlLk6GJQsqaUBKTNV-10" target="WIyWlLk6GJQsqaUBKTNV-11" edge="1">
          <mxGeometry x="0.3333" y="20" relative="1" as="geometry">
            <mxPoint as="offset" />
          </mxGeometry>
        </mxCell>
        <mxCell id="WIyWlLk6GJQsqaUBKTNV-9" value="No" style="edgeStyle=orthogonalEdgeStyle;rounded=0;html=1;jettySize=auto;orthogonalLoop=1;fontSize=11;endArrow=block;endFill=0;endSize=8;strokeWidth=1;shadow=0;labelBackgroundColor=none;entryX=0;entryY=0.5;entryDx=0;entryDy=0;" parent="WIyWlLk6GJQsqaUBKTNV-1" source="WIyWlLk6GJQsqaUBKTNV-10" target="WIyWlLk6GJQsqaUBKTNV-12" edge="1">
          <mxGeometry y="10" relative="1" as="geometry">
            <mxPoint as="offset" />
            <mxPoint x="533.94" y="725" as="targetPoint" />
          </mxGeometry>
        </mxCell>
        <mxCell id="WIyWlLk6GJQsqaUBKTNV-10" value="首次登录" style="rhombus;whiteSpace=wrap;html=1;shadow=0;fontFamily=Helvetica;fontSize=12;align=center;strokeWidth=1;spacing=6;spacingTop=-4;" parent="WIyWlLk6GJQsqaUBKTNV-1" vertex="1">
          <mxGeometry x="474" y="320" width="100" height="80" as="geometry" />
        </mxCell>
        <mxCell id="WIyWlLk6GJQsqaUBKTNV-11" value="选择登录" style="rounded=1;whiteSpace=wrap;html=1;fontSize=12;glass=0;strokeWidth=1;shadow=0;" parent="WIyWlLk6GJQsqaUBKTNV-1" vertex="1">
          <mxGeometry x="464" y="440" width="120" height="40" as="geometry" />
        </mxCell>
        <mxCell id="WIyWlLk6GJQsqaUBKTNV-12" value="查看个人信息&lt;div&gt;使用个人中心功能&lt;/div&gt;" style="rounded=1;whiteSpace=wrap;html=1;fontSize=12;glass=0;strokeWidth=1;shadow=0;" parent="WIyWlLk6GJQsqaUBKTNV-1" vertex="1">
          <mxGeometry x="630" y="340" width="120" height="40" as="geometry" />
        </mxCell>
        <mxCell id="4AQw_EIP_2b5Q0-50YWU-1" value="进入首页" style="rounded=1;whiteSpace=wrap;html=1;fontSize=12;glass=0;strokeWidth=1;shadow=0;" vertex="1" parent="WIyWlLk6GJQsqaUBKTNV-1">
          <mxGeometry x="264" y="170" width="120" height="40" as="geometry" />
        </mxCell>
        <mxCell id="4AQw_EIP_2b5Q0-50YWU-2" value="开始" style="strokeWidth=2;html=1;shape=mxgraph.flowchart.terminator;whiteSpace=wrap;" vertex="1" parent="WIyWlLk6GJQsqaUBKTNV-1">
          <mxGeometry x="274" y="30" width="100" height="40" as="geometry" />
        </mxCell>
        <mxCell id="4AQw_EIP_2b5Q0-50YWU-3" value="" style="rounded=0;html=1;jettySize=auto;orthogonalLoop=1;fontSize=11;endArrow=block;endFill=0;endSize=8;strokeWidth=1;shadow=0;labelBackgroundColor=none;edgeStyle=orthogonalEdgeStyle;" edge="1" parent="WIyWlLk6GJQsqaUBKTNV-1">
          <mxGeometry relative="1" as="geometry">
            <mxPoint x="323.41" y="140" as="sourcePoint" />
            <mxPoint x="323.7" y="170" as="targetPoint" />
          </mxGeometry>
        </mxCell>
        <mxCell id="4AQw_EIP_2b5Q0-50YWU-4" value="" style="rounded=0;html=1;jettySize=auto;orthogonalLoop=1;fontSize=11;endArrow=block;endFill=0;endSize=8;strokeWidth=1;shadow=0;labelBackgroundColor=none;edgeStyle=orthogonalEdgeStyle;entryX=0.5;entryY=0;entryDx=0;entryDy=0;" edge="1" parent="WIyWlLk6GJQsqaUBKTNV-1" target="WIyWlLk6GJQsqaUBKTNV-3">
          <mxGeometry relative="1" as="geometry">
            <mxPoint x="323.71000000000004" y="70" as="sourcePoint" />
            <mxPoint x="324" y="110" as="targetPoint" />
          </mxGeometry>
        </mxCell>
        <mxCell id="4AQw_EIP_2b5Q0-50YWU-6" value="使用&lt;span style=&quot;background-color: transparent; color: light-dark(rgb(0, 0, 0), rgb(255, 255, 255));&quot;&gt;小程序功能&lt;/span&gt;" style="rounded=1;whiteSpace=wrap;html=1;fontSize=12;glass=0;strokeWidth=1;shadow=0;" vertex="1" parent="WIyWlLk6GJQsqaUBKTNV-1">
          <mxGeometry x="94" y="230" width="120" height="40" as="geometry" />
        </mxCell>
        <mxCell id="4AQw_EIP_2b5Q0-50YWU-7" value="进入个人中心" style="rounded=1;whiteSpace=wrap;html=1;fontSize=12;glass=0;strokeWidth=1;shadow=0;" vertex="1" parent="WIyWlLk6GJQsqaUBKTNV-1">
          <mxGeometry x="464" y="220" width="120" height="40" as="geometry" />
        </mxCell>
        <mxCell id="4AQw_EIP_2b5Q0-50YWU-11" value="" style="rounded=0;html=1;jettySize=auto;orthogonalLoop=1;fontSize=11;endArrow=block;endFill=0;endSize=8;strokeWidth=1;shadow=0;labelBackgroundColor=none;edgeStyle=orthogonalEdgeStyle;exitX=0;exitY=0.5;exitDx=0;exitDy=0;" edge="1" parent="WIyWlLk6GJQsqaUBKTNV-1" source="4AQw_EIP_2b5Q0-50YWU-1" target="4AQw_EIP_2b5Q0-50YWU-6">
          <mxGeometry relative="1" as="geometry">
            <mxPoint x="323.50000000000006" y="220" as="sourcePoint" />
            <mxPoint x="323.79" y="260" as="targetPoint" />
          </mxGeometry>
        </mxCell>
        <mxCell id="4AQw_EIP_2b5Q0-50YWU-14" value="" style="rounded=0;html=1;jettySize=auto;orthogonalLoop=1;fontSize=11;endArrow=block;endFill=0;endSize=8;strokeWidth=1;shadow=0;labelBackgroundColor=none;edgeStyle=orthogonalEdgeStyle;exitX=1;exitY=0.5;exitDx=0;exitDy=0;entryX=0.5;entryY=0;entryDx=0;entryDy=0;" edge="1" parent="WIyWlLk6GJQsqaUBKTNV-1" source="4AQw_EIP_2b5Q0-50YWU-1" target="4AQw_EIP_2b5Q0-50YWU-7">
          <mxGeometry relative="1" as="geometry">
            <mxPoint x="624" y="230" as="sourcePoint" />
            <mxPoint x="534" y="330" as="targetPoint" />
          </mxGeometry>
        </mxCell>
        <mxCell id="4AQw_EIP_2b5Q0-50YWU-16" value="" style="rounded=0;html=1;jettySize=auto;orthogonalLoop=1;fontSize=11;endArrow=block;endFill=0;endSize=8;strokeWidth=1;shadow=0;labelBackgroundColor=none;edgeStyle=orthogonalEdgeStyle;exitX=0.5;exitY=1;exitDx=0;exitDy=0;" edge="1" parent="WIyWlLk6GJQsqaUBKTNV-1">
          <mxGeometry relative="1" as="geometry">
            <mxPoint x="523.9399999999999" y="260" as="sourcePoint" />
            <mxPoint x="523.9399999999999" y="320" as="targetPoint" />
          </mxGeometry>
        </mxCell>
        <mxCell id="4AQw_EIP_2b5Q0-50YWU-17" value="" style="rounded=0;html=1;jettySize=auto;orthogonalLoop=1;fontSize=11;endArrow=block;endFill=0;endSize=8;strokeWidth=1;shadow=0;labelBackgroundColor=none;edgeStyle=orthogonalEdgeStyle;" edge="1" parent="WIyWlLk6GJQsqaUBKTNV-1" source="WIyWlLk6GJQsqaUBKTNV-6" target="4AQw_EIP_2b5Q0-50YWU-15">
          <mxGeometry y="20" relative="1" as="geometry">
            <mxPoint as="offset" />
            <mxPoint x="153.94" y="420" as="sourcePoint" />
            <mxPoint x="153.94" y="490" as="targetPoint" />
          </mxGeometry>
        </mxCell>
        <mxCell id="4AQw_EIP_2b5Q0-50YWU-15" value="正常使用功能" style="rounded=1;whiteSpace=wrap;html=1;fontSize=12;glass=0;strokeWidth=1;shadow=0;" vertex="1" parent="WIyWlLk6GJQsqaUBKTNV-1">
          <mxGeometry x="93.94" y="480" width="120" height="40" as="geometry" />
        </mxCell>
        <mxCell id="4AQw_EIP_2b5Q0-50YWU-18" value="" style="rounded=0;html=1;jettySize=auto;orthogonalLoop=1;fontSize=11;endArrow=block;endFill=0;endSize=8;strokeWidth=1;shadow=0;labelBackgroundColor=none;edgeStyle=orthogonalEdgeStyle;exitX=0;exitY=0.5;exitDx=0;exitDy=0;" edge="1" parent="WIyWlLk6GJQsqaUBKTNV-1" source="WIyWlLk6GJQsqaUBKTNV-11" target="WIyWlLk6GJQsqaUBKTNV-7">
          <mxGeometry relative="1" as="geometry">
            <mxPoint x="463.44000000000005" y="530" as="sourcePoint" />
            <mxPoint x="603.94" y="560" as="targetPoint" />
            <Array as="points">
              <mxPoint x="414" y="460" />
              <mxPoint x="414" y="460" />
            </Array>
          </mxGeometry>
        </mxCell>
        <mxCell id="4AQw_EIP_2b5Q0-50YWU-19" value="Yes" style="rounded=0;html=1;jettySize=auto;orthogonalLoop=1;fontSize=11;endArrow=block;endFill=0;endSize=8;strokeWidth=1;shadow=0;labelBackgroundColor=none;edgeStyle=orthogonalEdgeStyle;" edge="1" parent="WIyWlLk6GJQsqaUBKTNV-1" source="4AQw_EIP_2b5Q0-50YWU-21" target="4AQw_EIP_2b5Q0-50YWU-22">
          <mxGeometry x="0.3333" y="20" relative="1" as="geometry">
            <mxPoint as="offset" />
          </mxGeometry>
        </mxCell>
        <mxCell id="4AQw_EIP_2b5Q0-50YWU-20" value="No" style="edgeStyle=orthogonalEdgeStyle;rounded=0;html=1;jettySize=auto;orthogonalLoop=1;fontSize=11;endArrow=block;endFill=0;endSize=8;strokeWidth=1;shadow=0;labelBackgroundColor=none;entryX=0;entryY=0.5;entryDx=0;entryDy=0;" edge="1" parent="WIyWlLk6GJQsqaUBKTNV-1" source="4AQw_EIP_2b5Q0-50YWU-21" target="4AQw_EIP_2b5Q0-50YWU-23">
          <mxGeometry y="10" relative="1" as="geometry">
            <mxPoint as="offset" />
            <mxPoint x="404" y="920" as="targetPoint" />
          </mxGeometry>
        </mxCell>
        <mxCell id="4AQw_EIP_2b5Q0-50YWU-21" value="账号是否存在" style="rhombus;whiteSpace=wrap;html=1;shadow=0;fontFamily=Helvetica;fontSize=12;align=center;strokeWidth=1;spacing=6;spacingTop=-4;" vertex="1" parent="WIyWlLk6GJQsqaUBKTNV-1">
          <mxGeometry x="284" y="535" width="100" height="80" as="geometry" />
        </mxCell>
        <mxCell id="4AQw_EIP_2b5Q0-50YWU-22" value="登陆成功&lt;div&gt;后端生成token&lt;/div&gt;" style="rounded=1;whiteSpace=wrap;html=1;fontSize=12;glass=0;strokeWidth=1;shadow=0;" vertex="1" parent="WIyWlLk6GJQsqaUBKTNV-1">
          <mxGeometry x="274" y="685" width="120" height="40" as="geometry" />
        </mxCell>
        <mxCell id="4AQw_EIP_2b5Q0-50YWU-23" value="注册" style="rounded=1;whiteSpace=wrap;html=1;fontSize=12;glass=0;strokeWidth=1;shadow=0;" vertex="1" parent="WIyWlLk6GJQsqaUBKTNV-1">
          <mxGeometry x="464" y="555" width="120" height="40" as="geometry" />
        </mxCell>
        <mxCell id="4AQw_EIP_2b5Q0-50YWU-24" value="" style="rounded=0;html=1;jettySize=auto;orthogonalLoop=1;fontSize=11;endArrow=block;endFill=0;endSize=8;strokeWidth=1;shadow=0;labelBackgroundColor=none;edgeStyle=orthogonalEdgeStyle;exitX=0.5;exitY=1;exitDx=0;exitDy=0;" edge="1" parent="WIyWlLk6GJQsqaUBKTNV-1" source="WIyWlLk6GJQsqaUBKTNV-7">
          <mxGeometry relative="1" as="geometry">
            <mxPoint x="334" y="490" as="sourcePoint" />
            <mxPoint x="333.5" y="535" as="targetPoint" />
          </mxGeometry>
        </mxCell>
        <mxCell id="4AQw_EIP_2b5Q0-50YWU-25" value="" style="rounded=0;html=1;jettySize=auto;orthogonalLoop=1;fontSize=11;endArrow=block;endFill=0;endSize=8;strokeWidth=1;shadow=0;labelBackgroundColor=none;edgeStyle=orthogonalEdgeStyle;exitX=0;exitY=0.5;exitDx=0;exitDy=0;entryX=0;entryY=0.25;entryDx=0;entryDy=0;" edge="1" parent="WIyWlLk6GJQsqaUBKTNV-1" source="4AQw_EIP_2b5Q0-50YWU-22" target="4AQw_EIP_2b5Q0-50YWU-1">
          <mxGeometry relative="1" as="geometry">
            <mxPoint x="323.5" y="685" as="sourcePoint" />
            <mxPoint x="104" y="360" as="targetPoint" />
            <Array as="points">
              <mxPoint x="64" y="705" />
              <mxPoint x="64" y="180" />
            </Array>
          </mxGeometry>
        </mxCell>
        <mxCell id="4AQw_EIP_2b5Q0-50YWU-26" value="结束" style="strokeWidth=2;html=1;shape=mxgraph.flowchart.terminator;whiteSpace=wrap;" vertex="1" parent="WIyWlLk6GJQsqaUBKTNV-1">
          <mxGeometry x="104" y="585" width="100" height="40" as="geometry" />
        </mxCell>
        <mxCell id="4AQw_EIP_2b5Q0-50YWU-27" value="" style="rounded=0;html=1;jettySize=auto;orthogonalLoop=1;fontSize=11;endArrow=block;endFill=0;endSize=8;strokeWidth=1;shadow=0;labelBackgroundColor=none;edgeStyle=orthogonalEdgeStyle;exitX=0.5;exitY=1;exitDx=0;exitDy=0;" edge="1" parent="WIyWlLk6GJQsqaUBKTNV-1">
          <mxGeometry relative="1" as="geometry">
            <mxPoint x="153.35" y="520" as="sourcePoint" />
            <mxPoint x="153.35" y="580" as="targetPoint" />
          </mxGeometry>
        </mxCell>
        <mxCell id="4AQw_EIP_2b5Q0-50YWU-28" value="" style="rounded=0;html=1;jettySize=auto;orthogonalLoop=1;fontSize=11;endArrow=block;endFill=0;endSize=8;strokeWidth=1;shadow=0;labelBackgroundColor=none;edgeStyle=orthogonalEdgeStyle;entryX=1;entryY=0.75;entryDx=0;entryDy=0;exitX=0.5;exitY=1;exitDx=0;exitDy=0;" edge="1" parent="WIyWlLk6GJQsqaUBKTNV-1" source="4AQw_EIP_2b5Q0-50YWU-23">
          <mxGeometry relative="1" as="geometry">
            <mxPoint x="514" y="600" as="sourcePoint" />
            <mxPoint x="394" y="710" as="targetPoint" />
            <Array as="points">
              <mxPoint x="514" y="710" />
            </Array>
          </mxGeometry>
        </mxCell>
        <mxCell id="4AQw_EIP_2b5Q0-50YWU-36" value="用户进入&lt;div&gt;交流论坛&lt;/div&gt;" style="rounded=1;whiteSpace=wrap;html=1;fontSize=12;glass=0;strokeWidth=1;shadow=0;" vertex="1" parent="WIyWlLk6GJQsqaUBKTNV-1">
          <mxGeometry x="65" y="1320" width="120" height="40" as="geometry" />
        </mxCell>
        <mxCell id="4AQw_EIP_2b5Q0-50YWU-46" value="" style="rounded=0;html=1;jettySize=auto;orthogonalLoop=1;fontSize=11;endArrow=block;endFill=0;endSize=8;strokeWidth=1;shadow=0;labelBackgroundColor=none;edgeStyle=orthogonalEdgeStyle;exitX=0.5;exitY=1;exitDx=0;exitDy=0;exitPerimeter=0;entryX=0.5;entryY=0;entryDx=0;entryDy=0;" edge="1" parent="WIyWlLk6GJQsqaUBKTNV-1" source="4AQw_EIP_2b5Q0-50YWU-66" target="4AQw_EIP_2b5Q0-50YWU-90">
          <mxGeometry relative="1" as="geometry">
            <mxPoint x="322.4100000000001" y="1350" as="sourcePoint" />
            <mxPoint x="495" y="1350" as="targetPoint" />
            <Array as="points">
              <mxPoint x="565" y="1280" />
            </Array>
          </mxGeometry>
        </mxCell>
        <mxCell id="4AQw_EIP_2b5Q0-50YWU-47" value="" style="rounded=0;html=1;jettySize=auto;orthogonalLoop=1;fontSize=11;endArrow=block;endFill=0;endSize=8;strokeWidth=1;shadow=0;labelBackgroundColor=none;edgeStyle=orthogonalEdgeStyle;entryX=0.5;entryY=0;entryDx=0;entryDy=0;" edge="1" parent="WIyWlLk6GJQsqaUBKTNV-1" target="4AQw_EIP_2b5Q0-50YWU-36">
          <mxGeometry relative="1" as="geometry">
            <mxPoint x="360" y="1240" as="sourcePoint" />
            <mxPoint x="323" y="1320" as="targetPoint" />
            <Array as="points">
              <mxPoint x="360" y="1280" />
              <mxPoint x="125" y="1280" />
            </Array>
          </mxGeometry>
        </mxCell>
        <mxCell id="4AQw_EIP_2b5Q0-50YWU-48" value="选择帖子类型" style="rounded=1;whiteSpace=wrap;html=1;fontSize=12;glass=0;strokeWidth=1;shadow=0;" vertex="1" parent="WIyWlLk6GJQsqaUBKTNV-1">
          <mxGeometry x="155" y="1550" width="120" height="40" as="geometry" />
        </mxCell>
        <mxCell id="4AQw_EIP_2b5Q0-50YWU-49" value="搜索框输入帖子&lt;div&gt;标题关键词&lt;/div&gt;" style="rounded=1;whiteSpace=wrap;html=1;fontSize=12;glass=0;strokeWidth=1;shadow=0;" vertex="1" parent="WIyWlLk6GJQsqaUBKTNV-1">
          <mxGeometry x="399" y="1550" width="120" height="40" as="geometry" />
        </mxCell>
        <mxCell id="4AQw_EIP_2b5Q0-50YWU-51" value="" style="rounded=0;html=1;jettySize=auto;orthogonalLoop=1;fontSize=11;endArrow=block;endFill=0;endSize=8;strokeWidth=1;shadow=0;labelBackgroundColor=none;edgeStyle=orthogonalEdgeStyle;entryX=0.5;entryY=0;entryDx=0;entryDy=0;exitX=1;exitY=0.5;exitDx=0;exitDy=0;" edge="1" parent="WIyWlLk6GJQsqaUBKTNV-1" source="4AQw_EIP_2b5Q0-50YWU-109" target="4AQw_EIP_2b5Q0-50YWU-49">
          <mxGeometry relative="1" as="geometry">
            <mxPoint x="385" y="1490" as="sourcePoint" />
            <mxPoint x="743" y="1620" as="targetPoint" />
          </mxGeometry>
        </mxCell>
        <mxCell id="4AQw_EIP_2b5Q0-50YWU-113" value="Yes" style="edgeLabel;html=1;align=center;verticalAlign=middle;resizable=0;points=[];" vertex="1" connectable="0" parent="4AQw_EIP_2b5Q0-50YWU-51">
          <mxGeometry x="-0.2692" relative="1" as="geometry">
            <mxPoint x="-4" y="-10" as="offset" />
          </mxGeometry>
        </mxCell>
        <mxCell id="4AQw_EIP_2b5Q0-50YWU-60" value="查看帖子详情" style="rounded=1;whiteSpace=wrap;html=1;fontSize=12;glass=0;strokeWidth=1;shadow=0;" vertex="1" parent="WIyWlLk6GJQsqaUBKTNV-1">
          <mxGeometry x="275" y="1620" width="120" height="40" as="geometry" />
        </mxCell>
        <mxCell id="4AQw_EIP_2b5Q0-50YWU-63" value="结束" style="strokeWidth=2;html=1;shape=mxgraph.flowchart.terminator;whiteSpace=wrap;" vertex="1" parent="WIyWlLk6GJQsqaUBKTNV-1">
          <mxGeometry x="285" y="1780" width="100" height="40" as="geometry" />
        </mxCell>
        <mxCell id="4AQw_EIP_2b5Q0-50YWU-66" value="开始" style="strokeWidth=2;html=1;shape=mxgraph.flowchart.terminator;whiteSpace=wrap;" vertex="1" parent="WIyWlLk6GJQsqaUBKTNV-1">
          <mxGeometry x="310" y="1200" width="100" height="40" as="geometry" />
        </mxCell>
        <mxCell id="4AQw_EIP_2b5Q0-50YWU-70" value="评论" style="rounded=1;whiteSpace=wrap;html=1;fontSize=12;glass=0;strokeWidth=1;shadow=0;" vertex="1" parent="WIyWlLk6GJQsqaUBKTNV-1">
          <mxGeometry x="425" y="1700" width="120" height="40" as="geometry" />
        </mxCell>
        <mxCell id="4AQw_EIP_2b5Q0-50YWU-71" value="点赞" style="rounded=1;whiteSpace=wrap;html=1;fontSize=12;glass=0;strokeWidth=1;shadow=0;" vertex="1" parent="WIyWlLk6GJQsqaUBKTNV-1">
          <mxGeometry x="138.94" y="1700" width="120" height="40" as="geometry" />
        </mxCell>
        <mxCell id="4AQw_EIP_2b5Q0-50YWU-72" value="收藏" style="rounded=1;whiteSpace=wrap;html=1;fontSize=12;glass=0;strokeWidth=1;shadow=0;" vertex="1" parent="WIyWlLk6GJQsqaUBKTNV-1">
          <mxGeometry x="275" y="1700" width="120" height="40" as="geometry" />
        </mxCell>
        <mxCell id="4AQw_EIP_2b5Q0-50YWU-83" value="" style="rounded=0;html=1;jettySize=auto;orthogonalLoop=1;fontSize=11;endArrow=block;endFill=0;endSize=8;strokeWidth=1;shadow=0;labelBackgroundColor=none;edgeStyle=orthogonalEdgeStyle;" edge="1" parent="WIyWlLk6GJQsqaUBKTNV-1" target="4AQw_EIP_2b5Q0-50YWU-60">
          <mxGeometry relative="1" as="geometry">
            <mxPoint x="334.5" y="1560" as="sourcePoint" />
            <mxPoint x="334.78999999999996" y="1590" as="targetPoint" />
          </mxGeometry>
        </mxCell>
        <mxCell id="4AQw_EIP_2b5Q0-50YWU-114" value="No" style="edgeLabel;html=1;align=center;verticalAlign=middle;resizable=0;points=[];" vertex="1" connectable="0" parent="4AQw_EIP_2b5Q0-50YWU-83">
          <mxGeometry x="-0.0667" y="5" relative="1" as="geometry">
            <mxPoint as="offset" />
          </mxGeometry>
        </mxCell>
        <mxCell id="4AQw_EIP_2b5Q0-50YWU-84" value="" style="rounded=0;html=1;jettySize=auto;orthogonalLoop=1;fontSize=11;endArrow=block;endFill=0;endSize=8;strokeWidth=1;shadow=0;labelBackgroundColor=none;edgeStyle=orthogonalEdgeStyle;entryX=0.5;entryY=0;entryDx=0;entryDy=0;exitX=0.5;exitY=1;exitDx=0;exitDy=0;" edge="1" parent="WIyWlLk6GJQsqaUBKTNV-1" source="4AQw_EIP_2b5Q0-50YWU-60" target="4AQw_EIP_2b5Q0-50YWU-71">
          <mxGeometry relative="1" as="geometry">
            <mxPoint x="332.5" y="1730" as="sourcePoint" />
            <mxPoint x="332.78999999999996" y="1760" as="targetPoint" />
          </mxGeometry>
        </mxCell>
        <mxCell id="4AQw_EIP_2b5Q0-50YWU-85" value="" style="rounded=0;html=1;jettySize=auto;orthogonalLoop=1;fontSize=11;endArrow=block;endFill=0;endSize=8;strokeWidth=1;shadow=0;labelBackgroundColor=none;edgeStyle=orthogonalEdgeStyle;exitX=0.5;exitY=1;exitDx=0;exitDy=0;" edge="1" parent="WIyWlLk6GJQsqaUBKTNV-1" source="4AQw_EIP_2b5Q0-50YWU-60" target="4AQw_EIP_2b5Q0-50YWU-72">
          <mxGeometry relative="1" as="geometry">
            <mxPoint x="332.5" y="1730" as="sourcePoint" />
            <mxPoint x="332.78999999999996" y="1760" as="targetPoint" />
          </mxGeometry>
        </mxCell>
        <mxCell id="4AQw_EIP_2b5Q0-50YWU-86" value="" style="rounded=0;html=1;jettySize=auto;orthogonalLoop=1;fontSize=11;endArrow=block;endFill=0;endSize=8;strokeWidth=1;shadow=0;labelBackgroundColor=none;edgeStyle=orthogonalEdgeStyle;entryX=0.5;entryY=0;entryDx=0;entryDy=0;exitX=0.5;exitY=1;exitDx=0;exitDy=0;" edge="1" parent="WIyWlLk6GJQsqaUBKTNV-1" source="4AQw_EIP_2b5Q0-50YWU-60" target="4AQw_EIP_2b5Q0-50YWU-70">
          <mxGeometry relative="1" as="geometry">
            <mxPoint x="332.5" y="1730" as="sourcePoint" />
            <mxPoint x="332.78999999999996" y="1760" as="targetPoint" />
          </mxGeometry>
        </mxCell>
        <mxCell id="4AQw_EIP_2b5Q0-50YWU-87" value="" style="rounded=0;html=1;jettySize=auto;orthogonalLoop=1;fontSize=11;endArrow=block;endFill=0;endSize=8;strokeWidth=1;shadow=0;labelBackgroundColor=none;edgeStyle=orthogonalEdgeStyle;exitX=0.5;exitY=1;exitDx=0;exitDy=0;" edge="1" parent="WIyWlLk6GJQsqaUBKTNV-1" source="4AQw_EIP_2b5Q0-50YWU-72" target="4AQw_EIP_2b5Q0-50YWU-63">
          <mxGeometry relative="1" as="geometry">
            <mxPoint x="335.5" y="1810" as="sourcePoint" />
            <mxPoint x="335.78999999999996" y="1840" as="targetPoint" />
          </mxGeometry>
        </mxCell>
        <mxCell id="4AQw_EIP_2b5Q0-50YWU-88" value="" style="rounded=0;html=1;jettySize=auto;orthogonalLoop=1;fontSize=11;endArrow=block;endFill=0;endSize=8;strokeWidth=1;shadow=0;labelBackgroundColor=none;edgeStyle=orthogonalEdgeStyle;entryX=1;entryY=0.5;entryDx=0;entryDy=0;entryPerimeter=0;exitX=0.5;exitY=1;exitDx=0;exitDy=0;" edge="1" parent="WIyWlLk6GJQsqaUBKTNV-1" source="4AQw_EIP_2b5Q0-50YWU-70" target="4AQw_EIP_2b5Q0-50YWU-63">
          <mxGeometry relative="1" as="geometry">
            <mxPoint x="442.71000000000004" y="1400" as="sourcePoint" />
            <mxPoint x="443" y="1430" as="targetPoint" />
          </mxGeometry>
        </mxCell>
        <mxCell id="4AQw_EIP_2b5Q0-50YWU-89" value="" style="rounded=0;html=1;jettySize=auto;orthogonalLoop=1;fontSize=11;endArrow=block;endFill=0;endSize=8;strokeWidth=1;shadow=0;labelBackgroundColor=none;edgeStyle=orthogonalEdgeStyle;entryX=0;entryY=0.5;entryDx=0;entryDy=0;entryPerimeter=0;exitX=0.5;exitY=1;exitDx=0;exitDy=0;" edge="1" parent="WIyWlLk6GJQsqaUBKTNV-1" source="4AQw_EIP_2b5Q0-50YWU-71" target="4AQw_EIP_2b5Q0-50YWU-63">
          <mxGeometry relative="1" as="geometry">
            <mxPoint x="154.5" y="1810" as="sourcePoint" />
            <mxPoint x="154.78999999999996" y="1840" as="targetPoint" />
            <Array as="points">
              <mxPoint x="199" y="1800" />
            </Array>
          </mxGeometry>
        </mxCell>
        <mxCell id="4AQw_EIP_2b5Q0-50YWU-90" value="用户进入&lt;span style=&quot;background-color: transparent; color: light-dark(rgb(0, 0, 0), rgb(255, 255, 255));&quot;&gt;个人中心&lt;/span&gt;&lt;div&gt;&lt;span style=&quot;background-color: transparent; color: light-dark(rgb(0, 0, 0), rgb(255, 255, 255));&quot;&gt;我的发帖&lt;/span&gt;&lt;/div&gt;" style="rounded=1;whiteSpace=wrap;html=1;fontSize=12;glass=0;strokeWidth=1;shadow=0;" vertex="1" parent="WIyWlLk6GJQsqaUBKTNV-1">
          <mxGeometry x="505" y="1320" width="120" height="40" as="geometry" />
        </mxCell>
        <mxCell id="4AQw_EIP_2b5Q0-50YWU-91" value="修改帖子状态&lt;div&gt;公开/私密&lt;/div&gt;" style="rounded=1;whiteSpace=wrap;html=1;fontSize=12;glass=0;strokeWidth=1;shadow=0;" vertex="1" parent="WIyWlLk6GJQsqaUBKTNV-1">
          <mxGeometry x="505" y="1400" width="120" height="40" as="geometry" />
        </mxCell>
        <mxCell id="4AQw_EIP_2b5Q0-50YWU-92" value="查看用户发帖详情和评论信息" style="rounded=1;whiteSpace=wrap;html=1;fontSize=12;glass=0;strokeWidth=1;shadow=0;" vertex="1" parent="WIyWlLk6GJQsqaUBKTNV-1">
          <mxGeometry x="365" y="1400" width="120" height="40" as="geometry" />
        </mxCell>
        <mxCell id="4AQw_EIP_2b5Q0-50YWU-94" value="" style="rounded=0;html=1;jettySize=auto;orthogonalLoop=1;fontSize=11;endArrow=block;endFill=0;endSize=8;strokeWidth=1;shadow=0;labelBackgroundColor=none;edgeStyle=orthogonalEdgeStyle;exitX=0.5;exitY=1;exitDx=0;exitDy=0;" edge="1" parent="WIyWlLk6GJQsqaUBKTNV-1" source="4AQw_EIP_2b5Q0-50YWU-90" target="4AQw_EIP_2b5Q0-50YWU-92">
          <mxGeometry relative="1" as="geometry">
            <mxPoint x="662.5" y="1435" as="sourcePoint" />
            <mxPoint x="662.79" y="1475" as="targetPoint" />
          </mxGeometry>
        </mxCell>
        <mxCell id="4AQw_EIP_2b5Q0-50YWU-95" value="" style="rounded=0;html=1;jettySize=auto;orthogonalLoop=1;fontSize=11;endArrow=block;endFill=0;endSize=8;strokeWidth=1;shadow=0;labelBackgroundColor=none;edgeStyle=orthogonalEdgeStyle;entryX=0.5;entryY=0;entryDx=0;entryDy=0;exitX=0.5;exitY=1;exitDx=0;exitDy=0;" edge="1" parent="WIyWlLk6GJQsqaUBKTNV-1" source="4AQw_EIP_2b5Q0-50YWU-90" target="4AQw_EIP_2b5Q0-50YWU-93">
          <mxGeometry relative="1" as="geometry">
            <mxPoint x="495" y="1380" as="sourcePoint" />
            <mxPoint x="873" y="1545" as="targetPoint" />
            <Array as="points">
              <mxPoint x="565" y="1380" />
              <mxPoint x="702" y="1380" />
            </Array>
          </mxGeometry>
        </mxCell>
        <mxCell id="4AQw_EIP_2b5Q0-50YWU-93" value="发布新帖子" style="rounded=1;whiteSpace=wrap;html=1;fontSize=12;glass=0;strokeWidth=1;shadow=0;" vertex="1" parent="WIyWlLk6GJQsqaUBKTNV-1">
          <mxGeometry x="642" y="1400" width="120" height="40" as="geometry" />
        </mxCell>
        <mxCell id="4AQw_EIP_2b5Q0-50YWU-105" value="" style="rounded=0;html=1;jettySize=auto;orthogonalLoop=1;fontSize=11;endArrow=block;endFill=0;endSize=8;strokeWidth=1;shadow=0;labelBackgroundColor=none;edgeStyle=orthogonalEdgeStyle;entryX=0.5;entryY=0;entryDx=0;entryDy=0;exitX=0.5;exitY=1;exitDx=0;exitDy=0;" edge="1" parent="WIyWlLk6GJQsqaUBKTNV-1" source="4AQw_EIP_2b5Q0-50YWU-90" target="4AQw_EIP_2b5Q0-50YWU-91">
          <mxGeometry relative="1" as="geometry">
            <mxPoint x="565" y="1370" as="sourcePoint" />
            <mxPoint x="565.29" y="1400" as="targetPoint" />
          </mxGeometry>
        </mxCell>
        <mxCell id="4AQw_EIP_2b5Q0-50YWU-109" value="查看特定帖子" style="rhombus;whiteSpace=wrap;html=1;shadow=0;fontFamily=Helvetica;fontSize=12;align=center;strokeWidth=1;spacing=6;spacingTop=-4;" vertex="1" parent="WIyWlLk6GJQsqaUBKTNV-1">
          <mxGeometry x="285" y="1480" width="100" height="80" as="geometry" />
        </mxCell>
        <mxCell id="4AQw_EIP_2b5Q0-50YWU-110" value="" style="rounded=0;html=1;jettySize=auto;orthogonalLoop=1;fontSize=11;endArrow=block;endFill=0;endSize=8;strokeWidth=1;shadow=0;labelBackgroundColor=none;edgeStyle=orthogonalEdgeStyle;entryX=0.5;entryY=0;entryDx=0;entryDy=0;exitX=0;exitY=0.5;exitDx=0;exitDy=0;" edge="1" parent="WIyWlLk6GJQsqaUBKTNV-1" source="4AQw_EIP_2b5Q0-50YWU-109" target="4AQw_EIP_2b5Q0-50YWU-48">
          <mxGeometry relative="1" as="geometry">
            <mxPoint x="135" y="1510" as="sourcePoint" />
            <mxPoint x="219" y="1550" as="targetPoint" />
            <Array as="points">
              <mxPoint x="215" y="1520" />
            </Array>
          </mxGeometry>
        </mxCell>
        <mxCell id="4AQw_EIP_2b5Q0-50YWU-112" value="Yes" style="edgeLabel;html=1;align=center;verticalAlign=middle;resizable=0;points=[];" vertex="1" connectable="0" parent="4AQw_EIP_2b5Q0-50YWU-110">
          <mxGeometry x="-0.22" y="2" relative="1" as="geometry">
            <mxPoint x="3" y="-12" as="offset" />
          </mxGeometry>
        </mxCell>
        <mxCell id="4AQw_EIP_2b5Q0-50YWU-111" value="" style="rounded=0;html=1;jettySize=auto;orthogonalLoop=1;fontSize=11;endArrow=block;endFill=0;endSize=8;strokeWidth=1;shadow=0;labelBackgroundColor=none;edgeStyle=orthogonalEdgeStyle;exitX=0.5;exitY=1;exitDx=0;exitDy=0;" edge="1" parent="WIyWlLk6GJQsqaUBKTNV-1" source="4AQw_EIP_2b5Q0-50YWU-36">
          <mxGeometry relative="1" as="geometry">
            <mxPoint x="335" y="1500" as="sourcePoint" />
            <mxPoint x="335" y="1480" as="targetPoint" />
          </mxGeometry>
        </mxCell>
        <mxCell id="4AQw_EIP_2b5Q0-50YWU-116" value="" style="rounded=0;html=1;jettySize=auto;orthogonalLoop=1;fontSize=11;endArrow=block;endFill=0;endSize=8;strokeWidth=1;shadow=0;labelBackgroundColor=none;edgeStyle=orthogonalEdgeStyle;entryX=1;entryY=0.5;entryDx=0;entryDy=0;exitX=0.5;exitY=1;exitDx=0;exitDy=0;" edge="1" parent="WIyWlLk6GJQsqaUBKTNV-1" source="4AQw_EIP_2b5Q0-50YWU-49" target="4AQw_EIP_2b5Q0-50YWU-60">
          <mxGeometry relative="1" as="geometry">
            <mxPoint x="415" y="1550" as="sourcePoint" />
            <mxPoint x="499" y="1590" as="targetPoint" />
          </mxGeometry>
        </mxCell>
        <mxCell id="4AQw_EIP_2b5Q0-50YWU-117" value="" style="rounded=0;html=1;jettySize=auto;orthogonalLoop=1;fontSize=11;endArrow=block;endFill=0;endSize=8;strokeWidth=1;shadow=0;labelBackgroundColor=none;edgeStyle=orthogonalEdgeStyle;entryX=0;entryY=0.5;entryDx=0;entryDy=0;exitX=0.5;exitY=1;exitDx=0;exitDy=0;" edge="1" parent="WIyWlLk6GJQsqaUBKTNV-1" source="4AQw_EIP_2b5Q0-50YWU-48" target="4AQw_EIP_2b5Q0-50YWU-60">
          <mxGeometry relative="1" as="geometry">
            <mxPoint x="425" y="1560" as="sourcePoint" />
            <mxPoint x="509" y="1600" as="targetPoint" />
          </mxGeometry>
        </mxCell>
        <mxCell id="4AQw_EIP_2b5Q0-50YWU-118" value="回复评论" style="rounded=1;whiteSpace=wrap;html=1;fontSize=12;glass=0;strokeWidth=1;shadow=0;" vertex="1" parent="WIyWlLk6GJQsqaUBKTNV-1">
          <mxGeometry x="585" y="1700" width="120" height="40" as="geometry" />
        </mxCell>
        <mxCell id="4AQw_EIP_2b5Q0-50YWU-119" value="" style="rounded=0;html=1;jettySize=auto;orthogonalLoop=1;fontSize=11;endArrow=block;endFill=0;endSize=8;strokeWidth=1;shadow=0;labelBackgroundColor=none;edgeStyle=orthogonalEdgeStyle;entryX=0.5;entryY=0;entryDx=0;entryDy=0;" edge="1" parent="WIyWlLk6GJQsqaUBKTNV-1" target="4AQw_EIP_2b5Q0-50YWU-118">
          <mxGeometry relative="1" as="geometry">
            <mxPoint x="335" y="1661" as="sourcePoint" />
            <mxPoint x="492.78999999999996" y="1760" as="targetPoint" />
            <Array as="points">
              <mxPoint x="335" y="1680" />
              <mxPoint x="645" y="1680" />
            </Array>
          </mxGeometry>
        </mxCell>
        <mxCell id="4AQw_EIP_2b5Q0-50YWU-120" value="" style="rounded=0;html=1;jettySize=auto;orthogonalLoop=1;fontSize=11;endArrow=block;endFill=0;endSize=8;strokeWidth=1;shadow=0;labelBackgroundColor=none;edgeStyle=orthogonalEdgeStyle;exitX=0.5;exitY=1;exitDx=0;exitDy=0;" edge="1" parent="WIyWlLk6GJQsqaUBKTNV-1" source="4AQw_EIP_2b5Q0-50YWU-118">
          <mxGeometry relative="1" as="geometry">
            <mxPoint x="602.71" y="1400" as="sourcePoint" />
            <mxPoint x="385" y="1800" as="targetPoint" />
            <Array as="points">
              <mxPoint x="645" y="1800" />
            </Array>
          </mxGeometry>
        </mxCell>
        <mxCell id="4AQw_EIP_2b5Q0-50YWU-123" value="" style="rounded=0;html=1;jettySize=auto;orthogonalLoop=1;fontSize=11;endArrow=block;endFill=0;endSize=8;strokeWidth=1;shadow=0;labelBackgroundColor=none;edgeStyle=orthogonalEdgeStyle;exitX=0.5;exitY=1;exitDx=0;exitDy=0;entryX=0.5;entryY=0;entryDx=0;entryDy=0;" edge="1" parent="WIyWlLk6GJQsqaUBKTNV-1" source="4AQw_EIP_2b5Q0-50YWU-138" target="4AQw_EIP_2b5Q0-50YWU-168">
          <mxGeometry relative="1" as="geometry">
            <mxPoint x="1040.94" y="350" as="sourcePoint" />
            <Array as="points" />
            <mxPoint x="1040.9" y="390.0319999999999" as="targetPoint" />
          </mxGeometry>
        </mxCell>
        <mxCell id="4AQw_EIP_2b5Q0-50YWU-124" value="用户进入智能&lt;div&gt;客服界面&lt;/div&gt;" style="rounded=1;whiteSpace=wrap;html=1;fontSize=12;glass=0;strokeWidth=1;shadow=0;" vertex="1" parent="WIyWlLk6GJQsqaUBKTNV-1">
          <mxGeometry x="1171" y="100" width="120" height="40" as="geometry" />
        </mxCell>
        <mxCell id="4AQw_EIP_2b5Q0-50YWU-126" value="" style="edgeStyle=orthogonalEdgeStyle;rounded=0;html=1;jettySize=auto;orthogonalLoop=1;fontSize=11;endArrow=block;endFill=0;endSize=8;strokeWidth=1;shadow=0;labelBackgroundColor=none;exitX=1;exitY=0.5;exitDx=0;exitDy=0;" edge="1" parent="WIyWlLk6GJQsqaUBKTNV-1" source="4AQw_EIP_2b5Q0-50YWU-157" target="4AQw_EIP_2b5Q0-50YWU-128">
          <mxGeometry y="10" relative="1" as="geometry">
            <mxPoint as="offset" />
            <mxPoint x="1241" y="410" as="targetPoint" />
            <mxPoint x="1090.94" y="430" as="sourcePoint" />
          </mxGeometry>
        </mxCell>
        <mxCell id="4AQw_EIP_2b5Q0-50YWU-128" value="图片" style="rounded=1;whiteSpace=wrap;html=1;fontSize=12;glass=0;strokeWidth=1;shadow=0;" vertex="1" parent="WIyWlLk6GJQsqaUBKTNV-1">
          <mxGeometry x="1181" y="410" width="120" height="40" as="geometry" />
        </mxCell>
        <mxCell id="4AQw_EIP_2b5Q0-50YWU-129" value="Yes" style="rounded=0;html=1;jettySize=auto;orthogonalLoop=1;fontSize=11;endArrow=block;endFill=0;endSize=8;strokeWidth=1;shadow=0;labelBackgroundColor=none;edgeStyle=orthogonalEdgeStyle;" edge="1" parent="WIyWlLk6GJQsqaUBKTNV-1" source="4AQw_EIP_2b5Q0-50YWU-131" target="4AQw_EIP_2b5Q0-50YWU-132">
          <mxGeometry x="0.3333" y="20" relative="1" as="geometry">
            <mxPoint as="offset" />
          </mxGeometry>
        </mxCell>
        <mxCell id="4AQw_EIP_2b5Q0-50YWU-130" value="No" style="edgeStyle=orthogonalEdgeStyle;rounded=0;html=1;jettySize=auto;orthogonalLoop=1;fontSize=11;endArrow=block;endFill=0;endSize=8;strokeWidth=1;shadow=0;labelBackgroundColor=none;entryX=0.5;entryY=1;entryDx=0;entryDy=0;exitX=0;exitY=0.5;exitDx=0;exitDy=0;" edge="1" parent="WIyWlLk6GJQsqaUBKTNV-1" source="4AQw_EIP_2b5Q0-50YWU-131" target="4AQw_EIP_2b5Q0-50YWU-134">
          <mxGeometry y="10" relative="1" as="geometry">
            <mxPoint as="offset" />
            <mxPoint x="1261" y="320" as="targetPoint" />
            <mxPoint x="1411" y="380" as="sourcePoint" />
            <Array as="points">
              <mxPoint x="1231" y="270" />
            </Array>
          </mxGeometry>
        </mxCell>
        <mxCell id="4AQw_EIP_2b5Q0-50YWU-131" value="切换人工服务" style="rhombus;whiteSpace=wrap;html=1;shadow=0;fontFamily=Helvetica;fontSize=12;align=center;strokeWidth=1;spacing=6;spacingTop=-4;" vertex="1" parent="WIyWlLk6GJQsqaUBKTNV-1">
          <mxGeometry x="1481" y="230" width="100" height="80" as="geometry" />
        </mxCell>
        <mxCell id="4AQw_EIP_2b5Q0-50YWU-132" value="申请人工接入" style="rounded=1;whiteSpace=wrap;html=1;fontSize=12;glass=0;strokeWidth=1;shadow=0;" vertex="1" parent="WIyWlLk6GJQsqaUBKTNV-1">
          <mxGeometry x="1471" y="350" width="120" height="40" as="geometry" />
        </mxCell>
        <mxCell id="4AQw_EIP_2b5Q0-50YWU-134" value="默认是智能客服模式" style="rounded=1;whiteSpace=wrap;html=1;fontSize=12;glass=0;strokeWidth=1;shadow=0;" vertex="1" parent="WIyWlLk6GJQsqaUBKTNV-1">
          <mxGeometry x="1171" y="170" width="120" height="40" as="geometry" />
        </mxCell>
        <mxCell id="4AQw_EIP_2b5Q0-50YWU-135" value="开始" style="strokeWidth=2;html=1;shape=mxgraph.flowchart.terminator;whiteSpace=wrap;" vertex="1" parent="WIyWlLk6GJQsqaUBKTNV-1">
          <mxGeometry x="1181" y="30" width="100" height="40" as="geometry" />
        </mxCell>
        <mxCell id="4AQw_EIP_2b5Q0-50YWU-136" value="" style="rounded=0;html=1;jettySize=auto;orthogonalLoop=1;fontSize=11;endArrow=block;endFill=0;endSize=8;strokeWidth=1;shadow=0;labelBackgroundColor=none;edgeStyle=orthogonalEdgeStyle;" edge="1" parent="WIyWlLk6GJQsqaUBKTNV-1">
          <mxGeometry relative="1" as="geometry">
            <mxPoint x="1230.41" y="140" as="sourcePoint" />
            <mxPoint x="1230.7" y="170" as="targetPoint" />
          </mxGeometry>
        </mxCell>
        <mxCell id="4AQw_EIP_2b5Q0-50YWU-137" value="" style="rounded=0;html=1;jettySize=auto;orthogonalLoop=1;fontSize=11;endArrow=block;endFill=0;endSize=8;strokeWidth=1;shadow=0;labelBackgroundColor=none;edgeStyle=orthogonalEdgeStyle;entryX=0.5;entryY=0;entryDx=0;entryDy=0;" edge="1" parent="WIyWlLk6GJQsqaUBKTNV-1" target="4AQw_EIP_2b5Q0-50YWU-124">
          <mxGeometry relative="1" as="geometry">
            <mxPoint x="1230.71" y="70" as="sourcePoint" />
            <mxPoint x="1231" y="110" as="targetPoint" />
          </mxGeometry>
        </mxCell>
        <mxCell id="4AQw_EIP_2b5Q0-50YWU-138" value="发送文字消息" style="rounded=1;whiteSpace=wrap;html=1;fontSize=12;glass=0;strokeWidth=1;shadow=0;" vertex="1" parent="WIyWlLk6GJQsqaUBKTNV-1">
          <mxGeometry x="1021" y="410" width="120" height="40" as="geometry" />
        </mxCell>
        <mxCell id="4AQw_EIP_2b5Q0-50YWU-140" value="" style="rounded=0;html=1;jettySize=auto;orthogonalLoop=1;fontSize=11;endArrow=block;endFill=0;endSize=8;strokeWidth=1;shadow=0;labelBackgroundColor=none;edgeStyle=orthogonalEdgeStyle;exitX=0;exitY=0.5;exitDx=0;exitDy=0;entryX=0.5;entryY=0;entryDx=0;entryDy=0;" edge="1" parent="WIyWlLk6GJQsqaUBKTNV-1" source="4AQw_EIP_2b5Q0-50YWU-134" target="4AQw_EIP_2b5Q0-50YWU-157">
          <mxGeometry relative="1" as="geometry">
            <mxPoint x="1230.5" y="220" as="sourcePoint" />
            <mxPoint x="1031" y="220" as="targetPoint" />
          </mxGeometry>
        </mxCell>
        <mxCell id="4AQw_EIP_2b5Q0-50YWU-141" value="" style="rounded=0;html=1;jettySize=auto;orthogonalLoop=1;fontSize=11;endArrow=block;endFill=0;endSize=8;strokeWidth=1;shadow=0;labelBackgroundColor=none;edgeStyle=orthogonalEdgeStyle;exitX=1;exitY=0.5;exitDx=0;exitDy=0;entryX=0.5;entryY=0;entryDx=0;entryDy=0;" edge="1" parent="WIyWlLk6GJQsqaUBKTNV-1" source="4AQw_EIP_2b5Q0-50YWU-134" target="4AQw_EIP_2b5Q0-50YWU-131">
          <mxGeometry relative="1" as="geometry">
            <mxPoint x="1531" y="230" as="sourcePoint" />
            <mxPoint x="1431" y="220" as="targetPoint" />
          </mxGeometry>
        </mxCell>
        <mxCell id="4AQw_EIP_2b5Q0-50YWU-144" value="智能客服回复" style="rounded=1;whiteSpace=wrap;html=1;fontSize=12;glass=0;strokeWidth=1;shadow=0;" vertex="1" parent="WIyWlLk6GJQsqaUBKTNV-1">
          <mxGeometry x="891" y="555" width="120" height="40" as="geometry" />
        </mxCell>
        <mxCell id="4AQw_EIP_2b5Q0-50YWU-150" value="后台管理员接入" style="rounded=1;whiteSpace=wrap;html=1;fontSize=12;glass=0;strokeWidth=1;shadow=0;" vertex="1" parent="WIyWlLk6GJQsqaUBKTNV-1">
          <mxGeometry x="1471" y="420" width="120" height="40" as="geometry" />
        </mxCell>
        <mxCell id="4AQw_EIP_2b5Q0-50YWU-153" value="结束" style="strokeWidth=2;html=1;shape=mxgraph.flowchart.terminator;whiteSpace=wrap;" vertex="1" parent="WIyWlLk6GJQsqaUBKTNV-1">
          <mxGeometry x="1031" y="640" width="100" height="40" as="geometry" />
        </mxCell>
        <mxCell id="4AQw_EIP_2b5Q0-50YWU-154" value="" style="rounded=0;html=1;jettySize=auto;orthogonalLoop=1;fontSize=11;endArrow=block;endFill=0;endSize=8;strokeWidth=1;shadow=0;labelBackgroundColor=none;edgeStyle=orthogonalEdgeStyle;exitX=0.5;exitY=1;exitDx=0;exitDy=0;entryX=0.5;entryY=0;entryDx=0;entryDy=0;entryPerimeter=0;" edge="1" parent="WIyWlLk6GJQsqaUBKTNV-1" source="4AQw_EIP_2b5Q0-50YWU-144" target="4AQw_EIP_2b5Q0-50YWU-153">
          <mxGeometry relative="1" as="geometry">
            <mxPoint x="931" y="600" as="sourcePoint" />
            <mxPoint x="1040.35" y="650" as="targetPoint" />
          </mxGeometry>
        </mxCell>
        <mxCell id="4AQw_EIP_2b5Q0-50YWU-157" value="选择聊天方式" style="rhombus;whiteSpace=wrap;html=1;shadow=0;fontFamily=Helvetica;fontSize=12;align=center;strokeWidth=1;spacing=6;spacingTop=-4;" vertex="1" parent="WIyWlLk6GJQsqaUBKTNV-1">
          <mxGeometry x="1031" y="300" width="100" height="80" as="geometry" />
        </mxCell>
        <mxCell id="4AQw_EIP_2b5Q0-50YWU-159" value="视频" style="rounded=1;whiteSpace=wrap;html=1;fontSize=12;glass=0;strokeWidth=1;shadow=0;" vertex="1" parent="WIyWlLk6GJQsqaUBKTNV-1">
          <mxGeometry x="891" y="410" width="120" height="40" as="geometry" />
        </mxCell>
        <mxCell id="4AQw_EIP_2b5Q0-50YWU-160" value="" style="rounded=0;html=1;jettySize=auto;orthogonalLoop=1;fontSize=11;endArrow=block;endFill=0;endSize=8;strokeWidth=1;shadow=0;labelBackgroundColor=none;edgeStyle=orthogonalEdgeStyle;exitX=0;exitY=0.5;exitDx=0;exitDy=0;entryX=0.5;entryY=0;entryDx=0;entryDy=0;" edge="1" parent="WIyWlLk6GJQsqaUBKTNV-1" source="4AQw_EIP_2b5Q0-50YWU-157" target="4AQw_EIP_2b5Q0-50YWU-159">
          <mxGeometry relative="1" as="geometry">
            <mxPoint x="1001" y="340" as="sourcePoint" />
            <mxPoint x="931" y="410" as="targetPoint" />
          </mxGeometry>
        </mxCell>
        <mxCell id="4AQw_EIP_2b5Q0-50YWU-161" value="" style="rounded=0;html=1;jettySize=auto;orthogonalLoop=1;fontSize=11;endArrow=block;endFill=0;endSize=8;strokeWidth=1;shadow=0;labelBackgroundColor=none;edgeStyle=orthogonalEdgeStyle;exitX=0.5;exitY=1;exitDx=0;exitDy=0;" edge="1" parent="WIyWlLk6GJQsqaUBKTNV-1" source="4AQw_EIP_2b5Q0-50YWU-157" target="4AQw_EIP_2b5Q0-50YWU-138">
          <mxGeometry relative="1" as="geometry">
            <mxPoint x="1171" y="280" as="sourcePoint" />
            <mxPoint x="1101" y="320" as="targetPoint" />
          </mxGeometry>
        </mxCell>
        <mxCell id="4AQw_EIP_2b5Q0-50YWU-165" value="" style="rounded=0;html=1;jettySize=auto;orthogonalLoop=1;fontSize=11;endArrow=block;endFill=0;endSize=8;strokeWidth=1;shadow=0;labelBackgroundColor=none;edgeStyle=orthogonalEdgeStyle;exitX=0.5;exitY=1;exitDx=0;exitDy=0;" edge="1" parent="WIyWlLk6GJQsqaUBKTNV-1" source="4AQw_EIP_2b5Q0-50YWU-132">
          <mxGeometry relative="1" as="geometry">
            <mxPoint x="1531" y="510" as="sourcePoint" />
            <mxPoint x="1531" y="420" as="targetPoint" />
          </mxGeometry>
        </mxCell>
        <mxCell id="4AQw_EIP_2b5Q0-50YWU-166" value="" style="rounded=0;html=1;jettySize=auto;orthogonalLoop=1;fontSize=11;endArrow=block;endFill=0;endSize=8;strokeWidth=1;shadow=0;labelBackgroundColor=none;edgeStyle=orthogonalEdgeStyle;exitX=0;exitY=0.5;exitDx=0;exitDy=0;entryX=0.5;entryY=0;entryDx=0;entryDy=0;" edge="1" parent="WIyWlLk6GJQsqaUBKTNV-1" source="4AQw_EIP_2b5Q0-50YWU-150" target="4AQw_EIP_2b5Q0-50YWU-157">
          <mxGeometry relative="1" as="geometry">
            <mxPoint x="1481" y="520" as="sourcePoint" />
            <mxPoint x="1481" y="580" as="targetPoint" />
            <Array as="points">
              <mxPoint x="1381" y="440" />
              <mxPoint x="1381" y="300" />
              <mxPoint x="1131" y="300" />
            </Array>
          </mxGeometry>
        </mxCell>
        <mxCell id="4AQw_EIP_2b5Q0-50YWU-167" value="" style="rounded=0;html=1;jettySize=auto;orthogonalLoop=1;fontSize=11;endArrow=block;endFill=0;endSize=8;strokeWidth=1;shadow=0;labelBackgroundColor=none;edgeStyle=orthogonalEdgeStyle;exitX=0.5;exitY=1;exitDx=0;exitDy=0;" edge="1" parent="WIyWlLk6GJQsqaUBKTNV-1" target="4AQw_EIP_2b5Q0-50YWU-168">
          <mxGeometry relative="1" as="geometry">
            <mxPoint x="931" y="450" as="sourcePoint" />
            <mxPoint x="1081" y="480" as="targetPoint" />
            <Array as="points">
              <mxPoint x="931" y="470" />
              <mxPoint x="1081" y="470" />
            </Array>
          </mxGeometry>
        </mxCell>
        <mxCell id="4AQw_EIP_2b5Q0-50YWU-168" value="是人工服务？" style="rhombus;whiteSpace=wrap;html=1;shadow=0;fontFamily=Helvetica;fontSize=12;align=center;strokeWidth=1;spacing=6;spacingTop=-4;" vertex="1" parent="WIyWlLk6GJQsqaUBKTNV-1">
          <mxGeometry x="1031" y="490" width="100" height="80" as="geometry" />
        </mxCell>
        <mxCell id="4AQw_EIP_2b5Q0-50YWU-169" value="人工客服回复" style="rounded=1;whiteSpace=wrap;html=1;fontSize=12;glass=0;strokeWidth=1;shadow=0;" vertex="1" parent="WIyWlLk6GJQsqaUBKTNV-1">
          <mxGeometry x="1191" y="555" width="120" height="40" as="geometry" />
        </mxCell>
        <mxCell id="4AQw_EIP_2b5Q0-50YWU-170" value="" style="rounded=0;html=1;jettySize=auto;orthogonalLoop=1;fontSize=11;endArrow=block;endFill=0;endSize=8;strokeWidth=1;shadow=0;labelBackgroundColor=none;edgeStyle=orthogonalEdgeStyle;exitX=0.5;exitY=1;exitDx=0;exitDy=0;entryX=0.5;entryY=0;entryDx=0;entryDy=0;entryPerimeter=0;" edge="1" parent="WIyWlLk6GJQsqaUBKTNV-1" source="4AQw_EIP_2b5Q0-50YWU-169" target="4AQw_EIP_2b5Q0-50YWU-153">
          <mxGeometry relative="1" as="geometry">
            <mxPoint x="1242" y="600" as="sourcePoint" />
            <mxPoint x="1311" y="645" as="targetPoint" />
          </mxGeometry>
        </mxCell>
        <mxCell id="4AQw_EIP_2b5Q0-50YWU-171" value="" style="rounded=0;html=1;jettySize=auto;orthogonalLoop=1;fontSize=11;endArrow=block;endFill=0;endSize=8;strokeWidth=1;shadow=0;labelBackgroundColor=none;edgeStyle=orthogonalEdgeStyle;exitX=0.5;exitY=1;exitDx=0;exitDy=0;" edge="1" parent="WIyWlLk6GJQsqaUBKTNV-1" target="4AQw_EIP_2b5Q0-50YWU-168">
          <mxGeometry relative="1" as="geometry">
            <mxPoint x="1241" y="450" as="sourcePoint" />
            <mxPoint x="1451" y="560" as="targetPoint" />
            <Array as="points">
              <mxPoint x="1241" y="470" />
              <mxPoint x="1081" y="470" />
            </Array>
          </mxGeometry>
        </mxCell>
        <mxCell id="4AQw_EIP_2b5Q0-50YWU-173" value="No" style="edgeStyle=orthogonalEdgeStyle;rounded=0;html=1;jettySize=auto;orthogonalLoop=1;fontSize=11;endArrow=block;endFill=0;endSize=8;strokeWidth=1;shadow=0;labelBackgroundColor=none;entryX=0.5;entryY=0;entryDx=0;entryDy=0;exitX=0;exitY=0.5;exitDx=0;exitDy=0;" edge="1" parent="WIyWlLk6GJQsqaUBKTNV-1" source="4AQw_EIP_2b5Q0-50YWU-168" target="4AQw_EIP_2b5Q0-50YWU-144">
          <mxGeometry y="10" relative="1" as="geometry">
            <mxPoint as="offset" />
            <mxPoint x="911" y="515" as="sourcePoint" />
            <mxPoint x="931" y="560" as="targetPoint" />
          </mxGeometry>
        </mxCell>
        <mxCell id="4AQw_EIP_2b5Q0-50YWU-174" value="Yes" style="rounded=0;html=1;jettySize=auto;orthogonalLoop=1;fontSize=11;endArrow=block;endFill=0;endSize=8;strokeWidth=1;shadow=0;labelBackgroundColor=none;edgeStyle=orthogonalEdgeStyle;entryX=0.5;entryY=0;entryDx=0;entryDy=0;exitX=1;exitY=0.5;exitDx=0;exitDy=0;" edge="1" parent="WIyWlLk6GJQsqaUBKTNV-1" source="4AQw_EIP_2b5Q0-50YWU-168" target="4AQw_EIP_2b5Q0-50YWU-169">
          <mxGeometry x="0.3333" y="20" relative="1" as="geometry">
            <mxPoint as="offset" />
            <mxPoint x="1301" y="510" as="sourcePoint" />
            <mxPoint x="1242" y="560" as="targetPoint" />
          </mxGeometry>
        </mxCell>
      </root>
    </mxGraphModel>
  </diagram>
</mxfile>
